<svg width="353" height="297" viewBox="0 0 353 297" fill="none" xmlns="http://www.w3.org/2000/svg">
<path d="M152.37 41.65C152.37 41.65 156.69 20.55 152.54 39.85C152.54 39.85 142.31 7.47004 124.1 11.41C108.69 14.75 108.67 40.33 108.67 40.33C108.67 40.33 91.2797 21.35 76.6097 32.03C57.3197 46.08 73.5797 75.26 73.5797 75.26C48.5797 72.91 56.0897 94.24 56.0897 94.24C56.0897 94.24 24.9397 82.05 17.7597 102.63C10.3397 123.89 34.0097 134.44 34.0097 134.44C34.0097 134.44 6.72967 136.19 7.04967 156.61C7.36967 177.03 31.5697 179.74 31.5697 179.74C31.5697 179.74 2.11967 189.03 8.53967 209.29C13.1697 223.92 41.3497 218.5 41.3497 218.5C41.3497 218.5 22.8597 237.33 30.4197 250.88C36.1597 261.17 57.9397 253.99 57.9397 253.99C57.9397 253.99 48.2097 279.27 60.4897 286.13C72.7697 292.99 88.2497 272.41 88.2497 272.41C88.2497 272.41 82.5597 287.89 93.3997 294.83C105.36 302.49 115.52 286.4 115.52 286.4L237.93 285.34C237.93 285.34 248.03 301.04 260.25 294.3C272.9 287.33 266.27 270.81 266.27 270.81C266.27 270.81 281.82 280.73 293.39 276.23C310.62 269.53 297.94 241.05 297.94 241.05C297.94 241.05 322.11 251.82 331.02 234.31C337.04 222.49 319.23 208.26 319.23 208.26C319.23 208.26 340.05 207.3 343.73 193.66C347.42 180.02 324.47 168.74 324.01 168.77C324.01 168.77 350.1 167.14 348.79 147.56C347.3 125.36 317.79 131.68 317.79 131.68C327.92 112.85 308.22 111.74 308.22 111.74C308.22 111.74 327.68 89.09 317.31 75.69C306.94 62.29 285.25 73.94 285.25 73.94C285.25 73.94 297.85 46.02 280.46 31.51C261.28 15.49 236.75 38.53 236.75 38.53C236.75 38.53 241.34 11.33 225.42 7.42004C206.18 2.69004 200.21 30.87 200.21 30.87C200.21 30.87 199.57 4.07004 181.07 4.87004C162.57 5.67004 164.64 37.41 164.64 37.41C154.75 26.48 152.52 39.8 152.52 39.8L152.37 41.65Z" fill="#DF5F14"/>
<path d="M219.25 254.19H111.5V311.62H219.25V254.19Z" fill="white"/>
<path d="M188.86 215.07C183.59 214.11 178.7 211.18 176.3 206.36C181.83 206.16 186.26 201.67 186.26 197.57C186.26 193.36 181.63 190.56 175.92 190.56C170.2 190.56 165.58 193.36 165.58 197.57C165.58 201.68 170 206.17 175.54 206.36C173.14 211.18 168.25 214.1 162.98 215.07C162.98 215.07 164.62 227.79 175.92 227.79C187.22 227.79 188.86 215.07 188.86 215.07ZM65.1198 240.34C59.3398 233.04 55.0698 225 52.4798 216.34C50.5598 209.94 49.5698 203.21 49.5698 196.22C49.5698 174.68 59.0398 154.9 75.7298 139.32C74.4298 126.74 73.0698 93.72 93.3998 86.73C111.84 80.38 127.5 99.17 134.6 109.77C136.94 109.23 139.32 108.74 141.73 108.3C143.73 118.61 149.97 135.62 169.44 141.43C189.79 147.5 206.17 136.65 206.17 136.65C201.77 134.8 198.43 132.13 195.93 129.39C208.63 131.37 219.88 124.62 219.88 124.62C212.56 120.45 209.64 113.33 208.47 108.01C211.44 108.53 214.37 109.12 217.23 109.77C224.34 99.17 240 80.38 258.43 86.73C278.76 93.72 277.4 126.74 276.1 139.32C292.8 154.9 302.26 174.69 302.26 196.22C302.26 246.47 250.88 282.93 175.91 282.93C125.49 282.92 85.7298 266.43 65.1198 240.34ZM205.26 183.51C205.26 178.46 201.16 174.35 196.11 174.35C191.05 174.35 186.95 178.46 186.95 183.51C186.95 188.56 191.05 192.66 196.11 192.66C201.16 192.66 205.26 188.57 205.26 183.51ZM164.89 183.51C164.89 178.46 160.79 174.35 155.73 174.35C150.68 174.35 146.58 178.46 146.58 183.51C146.58 188.56 150.68 192.66 155.73 192.66C160.79 192.66 164.89 188.57 164.89 183.51Z" fill="#F5D975"/>
<path d="M196.11 174.35C201.16 174.35 205.26 178.46 205.26 183.51C205.26 188.56 201.16 192.66 196.11 192.66C191.05 192.66 186.95 188.56 186.95 183.51C186.95 178.46 191.05 174.35 196.11 174.35ZM202.06 186.53C202.06 184.6 200.49 183.04 198.56 183.04C196.63 183.04 195.07 184.61 195.07 186.53C195.07 188.46 196.64 190.03 198.56 190.03C200.49 190.03 202.06 188.46 202.06 186.53ZM196.38 179.82C196.38 178.36 195.2 177.18 193.74 177.18C192.28 177.18 191.1 178.36 191.1 179.82C191.1 181.29 192.28 182.47 193.74 182.47C195.2 182.47 196.38 181.29 196.38 179.82Z" fill="#231815"/>
<path d="M198.56 183.04C200.49 183.04 202.06 184.61 202.06 186.53C202.06 188.46 200.49 190.03 198.56 190.03C196.63 190.03 195.07 188.46 195.07 186.53C195.06 184.6 196.63 183.04 198.56 183.04Z" fill="white"/>
<path d="M193.74 177.18C195.2 177.18 196.38 178.36 196.38 179.82C196.38 181.29 195.2 182.47 193.74 182.47C192.28 182.47 191.1 181.29 191.1 179.82C191.1 178.37 192.29 177.18 193.74 177.18Z" fill="white"/>
<path d="M188.86 215.07C188.86 215.07 187.22 227.79 175.92 227.79C164.61 227.79 162.98 215.07 162.98 215.07C168.25 214.11 173.14 211.18 175.54 206.36C175.67 206.37 175.8 206.37 175.92 206.37C176.05 206.37 176.18 206.37 176.3 206.36C178.71 211.19 183.6 214.11 188.86 215.07Z" fill="#D45055"/>
<path d="M175.92 190.56C181.63 190.56 186.26 193.36 186.26 197.57C186.26 201.68 181.83 206.17 176.3 206.36C176.16 206.09 176.04 205.81 175.92 205.53C175.8 205.81 175.67 206.08 175.54 206.36C170 206.16 165.58 201.67 165.58 197.57C165.58 193.36 170.2 190.56 175.92 190.56Z" fill="#231815"/>
<path d="M176.3 206.36C176.17 206.37 176.04 206.37 175.92 206.37C175.79 206.37 175.66 206.37 175.54 206.36C175.68 206.09 175.8 205.81 175.92 205.53C176.04 205.82 176.17 206.09 176.3 206.36Z" fill="#231815"/>
<path d="M155.73 174.35C160.79 174.35 164.89 178.46 164.89 183.51C164.89 188.56 160.79 192.66 155.73 192.66C150.68 192.66 146.58 188.56 146.58 183.51C146.58 178.46 150.68 174.35 155.73 174.35ZM161.4 186.53C161.4 184.6 159.83 183.04 157.9 183.04C155.97 183.04 154.41 184.61 154.41 186.53C154.41 188.46 155.98 190.03 157.9 190.03C159.83 190.03 161.4 188.46 161.4 186.53ZM155.73 179.82C155.73 178.36 154.55 177.18 153.09 177.18C151.63 177.18 150.45 178.36 150.45 179.82C150.45 181.29 151.63 182.47 153.09 182.47C154.55 182.47 155.73 181.29 155.73 179.82Z" fill="#231815"/>
<path d="M157.9 183.04C159.83 183.04 161.4 184.61 161.4 186.53C161.4 188.46 159.83 190.03 157.9 190.03C155.97 190.03 154.41 188.46 154.41 186.53C154.41 184.6 155.97 183.04 157.9 183.04Z" fill="white"/>
<path d="M153.09 177.18C154.55 177.18 155.73 178.36 155.73 179.82C155.73 181.29 154.55 182.47 153.09 182.47C151.63 182.47 150.45 181.29 150.45 179.82C150.45 178.37 151.63 177.18 153.09 177.18Z" fill="white"/>
<path d="M141.74 108.28C139.33 108.72 136.95 109.22 134.61 109.75C127.5 99.15 111.84 80.36 93.4096 86.71C73.0796 93.7 74.4396 126.72 75.7396 139.3C59.0396 154.88 49.5796 174.67 49.5796 196.2C49.5796 203.19 50.5796 209.93 52.4896 216.32C55.0796 224.98 59.3496 233.02 65.1296 240.32C85.7396 266.41 125.5 282.9 175.93 282.9C250.9 282.9 302.28 246.44 302.28 196.19C302.28 174.65 292.81 154.87 276.12 139.29C277.42 126.71 278.78 93.69 258.45 86.7C240.01 80.35 224.35 99.14 217.25 109.74C214.39 109.08 211.46 108.5 208.49 107.98" stroke="#231815" stroke-width="8" stroke-miterlimit="10" stroke-linecap="round" stroke-linejoin="round"/>
<path d="M82.82 203.05L52.48 216.34" stroke="#231815" stroke-width="8" stroke-miterlimit="10" stroke-linecap="round" stroke-linejoin="round"/>
<path d="M65.1196 240.34L93.4596 224.42" stroke="#231815" stroke-width="8" stroke-miterlimit="10" stroke-linecap="round" stroke-linejoin="round"/>
<path d="M268.91 203.05L299.25 216.34" stroke="#231815" stroke-width="8" stroke-miterlimit="10" stroke-linecap="round" stroke-linejoin="round"/>
<path d="M286.62 240.34L258.27 224.42" stroke="#231815" stroke-width="8" stroke-miterlimit="10" stroke-linecap="round" stroke-linejoin="round"/>
<path d="M100.26 104.7C100.26 104.7 109.09 110 108.77 124.6" stroke="#231815" stroke-width="8" stroke-miterlimit="10" stroke-linecap="round" stroke-linejoin="round"/>
<path d="M251.58 104.7C251.58 104.7 242.75 110 243.07 124.6" stroke="#231815" stroke-width="8" stroke-miterlimit="10" stroke-linecap="round" stroke-linejoin="round"/>
<path d="M175.92 205.54C175.8 205.82 175.67 206.09 175.54 206.37C173.14 211.19 168.25 214.11 162.98 215.08C159.94 215.63 156.78 215.53 153.9 214.76C148.18 213.23 143.75 209.31 141.06 204.08" stroke="#231815" stroke-width="8" stroke-miterlimit="10" stroke-linecap="round" stroke-linejoin="round"/>
<path d="M175.92 205.54C176.04 205.82 176.17 206.09 176.3 206.37C178.7 211.19 183.59 214.11 188.86 215.08C191.9 215.63 195.06 215.53 197.94 214.76C203.66 213.23 208.08 209.31 210.78 204.08" stroke="#231815" stroke-width="8" stroke-miterlimit="10" stroke-linecap="round" stroke-linejoin="round"/>
<path d="M189.24 118.12C189.24 118.12 190.9 123.89 195.93 129.37C198.43 132.11 201.77 134.78 206.17 136.63C206.17 136.63 189.79 147.48 169.44 141.41C149.97 135.61 143.74 118.59 141.73 108.28C140.78 103.42 140.78 100.04 140.78 100.04" stroke="#231815" stroke-width="8" stroke-miterlimit="10" stroke-linecap="round" stroke-linejoin="round"/>
<path d="M207.72 101.08C207.72 101.08 207.61 104.04 208.47 107.99C209.64 113.31 212.56 120.43 219.88 124.6C219.88 124.6 208.63 131.35 195.93 129.37" stroke="#231815" stroke-width="8" stroke-miterlimit="10" stroke-linecap="round" stroke-linejoin="round"/>
<path d="M34.5098 63.29C34.5098 63.29 53.1298 68.27 63.2398 84.79" stroke="#231815" stroke-width="8" stroke-miterlimit="10" stroke-linecap="round" stroke-linejoin="round"/>
<path d="M86.6701 273.21C86.4901 273.7 81.1101 288.89 91.8601 295.76C103.89 303.46 114.11 287.27 114.11 287.27" stroke="#231815" stroke-width="8" stroke-miterlimit="10" stroke-linecap="round" stroke-linejoin="round"/>
<path d="M54.3098 93.94C54.3098 93.94 22.9698 81.67 15.7598 102.37C8.29983 123.76 32.1098 134.38 32.1098 134.38C32.1098 134.38 4.65983 136.14 4.97983 156.69C5.29983 177.23 29.6498 179.96 29.6498 179.96C29.6498 179.96 0.0298272 189.31 6.47983 209.69C11.1298 224.41 39.4898 218.96 39.4898 218.96C39.4898 218.96 20.8798 237.9 28.4998 251.54C34.2798 261.89 56.1798 254.67 56.1798 254.67C56.1798 254.67 46.3898 280.11 58.7498 287.01C70.9398 293.82 86.2498 273.76 86.6598 273.22" stroke="#231815" stroke-width="8" stroke-miterlimit="10" stroke-linecap="round" stroke-linejoin="round"/>
<path d="M154.4 6.64001C154.4 6.64001 155.52 19.79 151.35 39.22C151.35 39.22 141.06 6.64001 122.74 10.6C107.23 13.96 107.22 39.7 107.22 39.7C107.22 39.7 89.73 20.6 74.96 31.36C55.55 45.49 71.91 74.85 71.91 74.85" stroke="#231815" stroke-width="8" stroke-miterlimit="10" stroke-linecap="round" stroke-linejoin="round"/>
<path d="M163.55 36.81C163.55 36.81 161.46 4.87001 180.08 4.07001C198.7 3.27001 199.34 30.23 199.34 30.23C199.34 30.23 205.34 1.88001 224.7 6.64001C240.71 10.57 236.09 37.93 236.09 37.93C236.09 37.93 260.76 14.76 280.06 30.87C297.56 45.47 284.88 73.56 284.88 73.56C284.88 73.56 306.7 61.85 317.14 75.32C327.57 88.8 307.99 111.59 307.99 111.59" stroke="#231815" stroke-width="8" stroke-miterlimit="10" stroke-linecap="round" stroke-linejoin="round"/>
<path d="M312.8 120.9C312.8 120.9 326.13 113.52 342.82 117.11" stroke="#231815" stroke-width="8" stroke-miterlimit="10" stroke-linecap="round" stroke-linejoin="round"/>
<path d="M265.79 271.61C265.99 272.13 272.24 288.33 259.72 295.24C247.42 302.01 237.26 286.22 237.26 286.22" stroke="#231815" stroke-width="8" stroke-miterlimit="10" stroke-linecap="round" stroke-linejoin="round"/>
<path d="M317.62 131.66C317.62 131.66 347.3 125.3 348.8 147.63C350.13 167.33 323.88 168.96 323.88 168.96C324.34 168.93 347.42 180.27 343.71 194C340 207.72 319.06 208.68 319.06 208.68C319.06 208.68 336.98 222.98 330.92 234.89C321.95 252.5 297.63 241.66 297.63 241.66C297.63 241.66 310.39 270.31 293.05 277.05C281.57 281.51 266.2 271.86 265.78 271.6C265.77 271.59 265.77 271.59 265.77 271.59" stroke="#231815" stroke-width="8" stroke-miterlimit="10" stroke-linecap="round" stroke-linejoin="round"/>
<path d="M162.98 215.07C162.98 215.07 164.62 227.79 175.92 227.79C187.22 227.79 188.86 215.07 188.86 215.07" stroke="#231815" stroke-width="8" stroke-miterlimit="10" stroke-linecap="round" stroke-linejoin="round"/>
<path d="M140.88 318.88C140.88 318.88 174.38 254.49 138.27 240.34C97.4899 224.36 78.1599 284.98 79.4099 315.14C79.9199 327.33 85.1799 339.54 98.6799 341.06" fill="#DF5F14"/>
<path d="M140.88 318.88C140.88 318.88 174.38 254.49 138.27 240.34C97.4899 224.36 78.1599 284.98 79.4099 315.14C79.9199 327.33 85.1799 339.54 98.6799 341.06" stroke="#231815" stroke-width="8" stroke-miterlimit="10"/>
<path d="M210.96 318.88C210.96 318.88 177.46 254.49 213.57 240.34C254.35 224.36 273.68 284.98 272.43 315.14C271.92 327.33 266.66 339.54 253.16 341.06" fill="#DF5F14"/>
<path d="M210.96 318.88C210.96 318.88 177.46 254.49 213.57 240.34C254.35 224.36 273.68 284.98 272.43 315.14C271.92 327.33 266.66 339.54 253.16 341.06" stroke="#231815" stroke-width="8" stroke-miterlimit="10"/>
<path d="M175.92 282.93V337.88" stroke="#231815" stroke-width="8" stroke-miterlimit="10" stroke-linecap="round" stroke-linejoin="round"/>
<path d="M111.5 203.78C120.27 203.78 127.38 199.245 127.38 193.65C127.38 188.055 120.27 183.52 111.5 183.52C102.729 183.52 95.6196 188.055 95.6196 193.65C95.6196 199.245 102.729 203.78 111.5 203.78Z" fill="#D7715F"/>
<path d="M240.34 203.78C249.11 203.78 256.22 199.245 256.22 193.65C256.22 188.055 249.11 183.52 240.34 183.52C231.57 183.52 224.46 188.055 224.46 193.65C224.46 199.245 231.57 203.78 240.34 203.78Z" fill="#D7715F"/>
</svg>
